<?xml version="1.0" standalone="no"?>
<!DOCTYPE svg PUBLIC "-//W3C//DTD SVG 20010904//EN"
 "http://www.w3.org/TR/2001/REC-SVG-20010904/DTD/svg10.dtd">
<svg version="1.0" xmlns="http://www.w3.org/2000/svg"
 width="300.000000pt" height="400.000000pt" viewBox="0 0 300.000000 400.000000"
 preserveAspectRatio="xMidYMid meet">
<metadata>
Created by potrace 1.10, written by Peter Selinger 2001-2011
</metadata>
<g transform="translate(0.000000,400.000000) scale(0.100000,-0.100000)"
fill="#000000" stroke="none">
<path d="M1573 3961 c-141 -102 -253 -385 -253 -635 0 -102 22 -264 56 -425
l27 -125 -127 -119 c-268 -253 -419 -476 -482 -712 -26 -99 -26 -335 0 -420
66 -215 225 -400 431 -502 161 -80 345 -111 499 -82 32 6 60 8 63 5 3 -2 23
-87 44 -188 36 -166 40 -194 36 -298 -4 -131 -24 -197 -82 -273 -53 -69 -122
-99 -244 -105 -104 -5 -153 5 -203 40 -35 24 -36 37 -3 30 71 -13 176 51 215
133 84 174 -71 377 -256 336 -270 -61 -237 -446 50 -582 59 -28 165 -42 152
-20 -7 10 23 20 42 14 6 -3 9 -9 6 -15 -5 -8 14 -9 60 -6 234 19 392 253 357
528 -9 65 -72 374 -87 422 -4 13 8 24 48 44 85 43 178 146 232 255 59 120 79
200 78 314 0 115 -27 202 -85 282 -117 158 -297 253 -458 241 l-58 -4 -17 75
c-9 42 -29 132 -44 200 l-28 125 63 80 c192 248 298 468 339 705 43 251 -8
516 -122 643 -48 53 -80 68 -150 68 -49 0 -66 -5 -99 -29z m210 -59 c80 -78
125 -213 134 -397 13 -297 -91 -577 -337 -900 -61 -80 -70 -97 -70 -133 0 -39
-2 -42 -19 -32 -11 5 -27 7 -35 4 -17 -7 -334 -348 -399 -429 -198 -248 -154
-630 100 -866 27 -25 68 -59 91 -74 48 -32 53 -39 17 -25 -55 21 -105 52 -171
104 -294 234 -367 608 -190 970 70 144 156 255 354 457 157 161 182 191 182
218 0 28 2 30 19 19 29 -18 58 1 155 102 148 154 245 362 262 565 10 106 -9
181 -57 229 -37 37 -42 38 -86 32 -161 -22 -302 -212 -347 -467 l-13 -74 -8
49 c-11 69 1 217 25 311 27 107 108 269 161 324 23 24 60 51 82 61 37 17 44
17 77 4 19 -8 52 -32 73 -52z m16 -213 c44 -48 51 -199 16 -334 -20 -75 -73
-199 -117 -272 -30 -51 -209 -243 -226 -243 -18 0 -47 219 -46 345 1 112 5
141 27 211 45 137 134 251 231 295 54 25 91 24 115 -2z m-285 -1439 c20 -91
36 -168 36 -171 0 -3 -30 -21 -66 -39 -84 -41 -188 -143 -232 -226 -125 -240
-46 -457 213 -585 47 -23 87 -40 90 -37 3 3 -20 25 -50 49 -105 83 -132 149
-123 295 7 98 44 174 111 225 27 20 63 41 81 46 l32 10 79 -371 c43 -204 80
-378 83 -387 6 -24 -118 -44 -220 -36 -307 24 -545 265 -574 581 -15 171 41
311 188 473 253 277 313 342 315 340 1 -2 18 -77 37 -167z m101 -180 c3 -5 32
-10 64 -10 148 0 252 -44 368 -154 52 -48 83 -88 105 -134 30 -61 33 -76 36
-177 4 -135 -11 -205 -74 -326 -47 -90 -107 -157 -210 -229 -27 -19 -53 -45
-59 -58 -11 -26 -27 -28 -45 -7 -7 8 -19 15 -27 15 -11 0 -10 6 5 28 10 15 22
35 26 46 6 18 7 18 26 1 24 -22 53 -15 107 24 52 38 96 102 130 188 23 59 27
83 27 178 1 99 -2 116 -26 168 -57 122 -190 221 -314 234 -48 5 -58 3 -80 -18
-21 -19 -28 -21 -42 -11 -33 24 -43 24 -89 7 -66 -25 -127 -86 -166 -164 -31
-63 -32 -70 -32 -187 0 -136 -5 -142 -55 -66 -33 49 -60 128 -60 173 0 148
106 317 253 402 36 21 75 49 88 63 25 26 34 29 44 14z m213 -272 c104 -39 189
-126 218 -225 34 -118 3 -290 -70 -386 -32 -42 -115 -112 -123 -103 -4 4 -163
723 -163 739 0 11 78 -3 138 -25z m-374 -1251 c67 -51 96 -154 65 -234 -22
-59 -108 -122 -167 -123 -13 0 -37 -13 -53 -29 l-29 -29 -40 45 c-84 96 -106
249 -47 327 44 56 90 77 168 73 54 -2 73 -7 103 -30z"/>
<path d="M1937 150 c-3 -11 -10 -20 -17 -20 -6 0 -8 5 -5 10 3 6 1 10 -4 10
-6 0 -11 -7 -11 -15 0 -8 9 -15 20 -15 11 0 20 -4 20 -10 0 -5 25 -9 56 -9 31
1 51 5 44 9 -9 5 -9 9 -1 14 6 4 11 12 11 17 0 6 -4 8 -9 5 -4 -3 -17 1 -27 9
-29 22 -71 19 -77 -5z m48 -6 c-18 -13 -17 -14 13 -8 28 6 31 4 26 -11 -5 -12
-9 -13 -14 -5 -5 9 -9 9 -14 1 -13 -21 -36 -12 -36 14 0 19 5 25 23 25 22 -1
22 -1 2 -16z"/>
<path d="M2091 128 c0 -10 -6 -18 -12 -18 -5 0 -7 5 -4 10 3 6 1 10 -4 10 -6
0 -11 -7 -11 -16 0 -12 9 -14 42 -12 34 2 43 7 46 23 2 18 2 18 -8 3 -6 -10
-17 -18 -25 -18 -7 0 -16 8 -18 18 -4 16 -5 16 -6 0z"/>
</g>
</svg>
